# xmcd
#
# Track frame offsets:
#	150
#	21000
#	39390
#	62292
#	85372
#	106500
#	137862
#	160217
#	177512
#	198740
#	224850
#	245792
#
# Disc length: 3725 seconds
# Revision: 3
# Processed by: cddbd v1.5.2PL0 Copyright (c) Steve Scherf et al.
# Submitted via: dBpowerAMP V12.0
#
DISCID=ac0e8b0c
DTITLE=Carl Weathersby - Come to Papa
DYEAR=2000
DGENRE=Blues
TTITLE0=Come to Papa
TTITLE1=Leap of Good Faith
TTITLE2=Love, Lead us Home
TTITLE3=You Better Think About it
TTITLE4=(I Feel Like) Breakin' up Somebody's Home
TTITLE5=Walking The Back Streets And Cryin'
TTITLE6=My Baby
TTITLE7=Floodin' in California
TTITLE8=A Good Man is Hard to Find
TTITLE9=Help me Somebody
TTITLE10=Danger All About
TTITLE11=Drifting Blues
EXTD=
EXTT0=
EXTT1=
EXTT2=
EXTT3=
EXTT4=
EXTT5=
EXTT6=
EXTT7=
EXTT8=
EXTT9=
EXTT10=
EXTT11=
PLAYORDER=
